PathFileType  4	(X/Y/Z) C:\Users\antoi\Documents\MyRepositories\mobilecap\ResultsAnalysis
DataRate	CameraRate	NumFrames	NumMarkers	Units	OrigDataRate	OrigDataStartFrame	OrigNumFrames
100.0	100.0	5	51	mm	100.0	97	256
Frame#	Time	r_knee			r_shank_antsup			r_ankle			r_calc			r_5meta			r_toe			L_knee			L_shank_antsup			L_ankle			L_calc			L_5meta			L_toe			r_sh2			r_sh3			r_sh4			L_sh2			L_sh3			r_thigh1			r_thigh2			r_thigh3			r_thigh4			r_thigh5			L_thigh1			L_thigh2			L_thigh3			L_thigh4			r.ASIS			r.PSIS			L.ASIS			L.PSIS			C7			R_Shoulder			L_Shoulder			R_Sternum			L_Sternum			R_humerus			R_elbow_med			R_elbow_lat			R_forearm			R_wrist_radius			R_wrist_ulna			L_humerus			L_elbow_med			L_elbow_lat			L_forearm			L_wrist_radius			L_wrist_ulna			R_HJC			L_HJC			R_HJC_reg			L_HJC_reg			
		X1	Y1	Z1	X2	Y2	Z2	X3	Y3	Z3	X4	Y4	Z4	X5	Y5	Z5	X6	Y6	Z6	X7	Y7	Z7	X8	Y8	Z8	X9	Y9	Z9	X10	Y10	Z10	X11	Y11	Z11	X12	Y12	Z12	X13	Y13	Z13	X14	Y14	Z14	X15	Y15	Z15	X16	Y16	Z16	X17	Y17	Z17	X18	Y18	Z18	X19	Y19	Z19	X20	Y20	Z20	X21	Y21	Z21	X22	Y22	Z22	X23	Y23	Z23	X24	Y24	Z24	X25	Y25	Z25	X26	Y26	Z26	X27	Y27	Z27	X28	Y28	Z28	X29	Y29	Z29	X30	Y30	Z30	X31	Y31	Z31	X32	Y32	Z32	X33	Y33	Z33	X34	Y34	Z34	X35	Y35	Z35	X36	Y36	Z36	X37	Y37	Z37	X38	Y38	Z38	X39	Y39	Z39	X40	Y40	Z40	X41	Y41	Z41	X42	Y42	Z42	X43	Y43	Z43	X44	Y44	Z44	X45	Y45	Z45	X46	Y46	Z46	X47	Y47	Z47	X48	Y48	Z48	X49	Y49	Z49	X50	Y50	Z50	X51	Y51	Z51	

97	0.96000000	-783.39864	841.74642	-426.84833	-803.16657	743.28968	-428.86427	-1068.72872	556.12245	-446.15311	-1120.26607	591.51647	-500.80627	-1068.40841	415.31614	-419.11737	-1017.39382	404.51025	-464.21930	-821.04088	840.55172	-737.15442	-832.34414	744.06093	-728.81424	-1095.08180	533.62921	-721.43883	-1164.33543	572.43870	-671.11319	-1099.88281	402.21529	-746.52180	-1047.37500	381.25362	-695.36926	-881.98338	661.02708	-432.51406	-853.44316	789.84730	-395.18388	-935.81373	711.12060	-396.30141	-886.23710	808.05357	-762.89190	-970.97354	720.33762	-767.22183	-770.40282	1122.27024	-400.18253	-745.32269	1014.67315	-412.53407	-792.46938	974.90811	-385.10893	-879.34246	1092.16239	-388.30740	-845.55109	981.77520	-404.08918	-755.11428	1089.62120	-741.11038	-739.24844	950.93062	-724.37478	-858.61124	1075.49053	-777.68926	-843.97919	944.17091	-754.09106	-754.71272	1307.49013	-451.01552	-945.67304	1371.12256	-536.84558	-745.92948	1310.40087	-696.45202	-938.45179	1373.23212	-634.61866	-843.61621	1807.33228	-577.03564	-793.83565	1791.77712	-425.66940	-771.68402	1775.77520	-706.34964	-726.89235	1721.88821	-537.80708	-724.86329	1720.55191	-586.23908	-711.13249	1724.58462	-351.19777	-671.32214	1507.79543	-299.23074	-659.96847	1549.74520	-245.68101	-570.50799	1570.42831	-256.98830	-414.12484	1543.80164	-321.47814	-413.82631	1523.12134	-276.24308	-675.70300	1728.62294	-762.51502	-559.89692	1551.66852	-788.60220	-548.91231	1607.59741	-842.35871	-474.29889	1631.69956	-827.56259	-301.02141	1607.51649	-786.98705	-308.42505	1599.42818	-837.28014	-848.57899	1234.27873	-478.88184	-837.57811	1236.80980	-668.10775	-837.68964	1243.97935	-492.97523	-825.75114	1247.46694	-654.60169	
98	0.97000000	-761.72567	849.89718	-426.14389	-780.78367	751.77987	-428.21326	-1046.25358	563.39643	-445.09455	-1099.08068	598.32991	-498.60299	-1043.19003	422.40074	-418.11489	-992.99078	412.69503	-463.78740	-798.22193	848.25369	-739.31772	-810.26761	752.05403	-729.78180	-1073.60096	542.16451	-723.07876	-1143.18464	581.93870	-674.51344	-1079.64946	410.44883	-747.78346	-1028.77231	388.66398	-695.43757	-859.75880	669.90426	-431.21222	-831.01323	798.15881	-393.73387	-910.71636	720.24610	-392.84163	-863.80438	816.20917	-764.39445	-948.56461	728.47827	-769.38280	-758.84599	1130.87219	-398.81700	-730.39331	1024.25864	-411.04066	-775.95616	982.93571	-383.94451	-866.85235	1097.21872	-387.31341	-829.38241	988.04091	-402.86096	-742.71295	1099.14608	-742.28950	-721.83330	961.14099	-726.26392	-845.67707	1081.51704	-778.60507	-826.24630	950.64055	-755.75676	-745.29243	1315.58141	-451.29285	-935.41119	1379.54617	-535.65611	-736.84710	1318.94012	-695.62508	-928.88269	1381.72861	-632.88273	-832.47067	1814.31658	-576.95988	-782.77141	1798.08367	-425.81613	-761.54503	1782.41012	-706.35343	-716.30574	1728.65045	-537.47527	-713.99319	1726.85124	-586.30148	-700.73168	1730.51801	-350.21829	-663.84161	1513.92193	-297.24908	-652.41071	1555.82550	-243.89610	-562.28581	1574.24762	-254.18712	-405.66732	1544.83110	-317.57099	-406.02310	1524.06519	-272.37718	-665.01475	1734.93682	-763.42425	-550.39268	1557.88467	-790.77186	-539.76550	1613.80857	-844.74277	-464.96515	1637.48446	-830.35446	-291.39069	1612.32093	-791.90500	-299.40379	1604.39087	-842.11788	-838.81036	1242.43041	-478.25809	-828.49069	1245.39379	-667.51625	-827.82808	1252.76743	-492.52575	-817.02240	1256.38067	-653.49391	
99	0.98000000	-740.89772	857.85313	-425.24077	-758.20691	759.62195	-427.72826	-1022.26277	567.30797	-443.99655	-1075.78787	601.88089	-497.07808	-1016.82427	426.83157	-416.78681	-966.17755	418.10950	-462.03850	-776.74344	855.53225	-740.87997	-788.41094	759.19428	-730.46662	-1051.23814	548.04947	-724.48442	-1121.72762	587.08802	-677.01373	-1055.28954	416.38968	-749.63249	-1004.77722	395.21083	-696.58188	-836.91006	677.22994	-430.12067	-808.26658	805.71489	-392.51089	-886.31011	727.24553	-390.45968	-841.77943	823.18419	-765.91625	-926.41663	735.20980	-771.03923	-747.53889	1138.44657	-397.67623	-715.87744	1032.95605	-410.05150	-759.91199	990.16381	-383.16023	-854.47186	1101.38999	-386.47309	-813.52005	993.50040	-401.99418	-730.64531	1107.49388	-743.40075	-705.17348	970.40062	-727.99434	-833.15146	1086.41905	-779.26576	-809.15598	956.24874	-756.93484	-736.22353	1322.44703	-451.25492	-925.50738	1386.71561	-534.35414	-727.98754	1326.05237	-695.24942	-919.91984	1389.10311	-630.97490	-821.06340	1820.49272	-576.41741	-770.65648	1803.35385	-425.60086	-750.52048	1787.88307	-706.42897	-705.17469	1734.33994	-537.34067	-703.10793	1732.10119	-586.51358	-689.68129	1735.00198	-349.12568	-655.29269	1518.88486	-295.45517	-643.74830	1560.82497	-242.26556	-552.97304	1577.01639	-251.58894	-396.38474	1544.04511	-313.59935	-397.60112	1523.28177	-268.57635	-654.08363	1739.80960	-764.38188	-540.61494	1562.99547	-792.84772	-530.23935	1618.74573	-847.02851	-455.18315	1642.00169	-833.40101	-281.41302	1615.27727	-796.78160	-290.14512	1607.54360	-846.95322	-829.40398	1249.35946	-477.56143	-819.88835	1252.68949	-666.85592	-818.14865	1259.86653	-491.77203	-808.85125	1263.84164	-652.59865	
100	0.99000000	-720.91887	865.75231	-423.94861	-735.83368	766.90237	-427.22485	-997.08733	568.03069	-442.48620	-1050.69921	601.95356	-495.94325	-989.47859	427.99826	-415.07919	-937.47551	420.55642	-459.30967	-757.01405	862.06736	-741.82839	-766.91266	765.71829	-731.17042	-1027.37829	551.29216	-726.09086	-1098.26039	588.67981	-677.71511	-1028.93916	419.81314	-752.01110	-977.54785	399.43597	-699.64171	-813.25516	682.86384	-429.29347	-786.12119	812.02148	-391.68795	-863.63550	731.63406	-389.40716	-820.72940	828.91594	-767.18961	-904.51936	740.11460	-772.24013	-736.45491	1145.11124	-396.77105	-701.80555	1040.83425	-409.52541	-744.38413	996.58434	-382.56676	-842.18659	1105.00168	-385.57783	-798.06866	998.33560	-401.38158	-718.88072	1114.71894	-744.35110	-689.15233	978.53005	-729.11235	-820.90050	1090.41229	-779.77512	-792.76766	961.14264	-757.49118	-727.43094	1327.92191	-451.21008	-916.04524	1392.66159	-532.84237	-719.35435	1331.70479	-695.22421	-911.27466	1395.25007	-629.00090	-809.40137	1825.72572	-575.89251	-757.99092	1807.73894	-424.83142	-738.78579	1792.50318	-706.55975	-693.79535	1739.12496	-537.42021	-692.07775	1736.57861	-586.57954	-678.11111	1738.24398	-348.06758	-645.84669	1522.67569	-293.80249	-634.01511	1564.72620	-240.76693	-542.64714	1578.83484	-249.12441	-386.34683	1541.72133	-309.65674	-388.61185	1520.99205	-264.88852	-643.01549	1743.66941	-765.67555	-530.61458	1566.95053	-794.86277	-520.35041	1622.52066	-849.25144	-445.05924	1645.29543	-836.50526	-271.23216	1616.50899	-801.62255	-280.61806	1608.96283	-851.71611	-820.32626	1254.95556	-476.89146	-811.74845	1258.66481	-666.22350	-808.92131	1265.49777	-491.17289	-800.93873	1269.82991	-652.07318	
101	1.00000000	-702.44358	872.88058	-422.57608	-714.39087	773.41308	-426.95970	-970.98649	565.72045	-440.42807	-1024.77103	598.09282	-494.29738	-959.56450	425.96623	-412.43379	-906.42944	420.57702	-456.07379	-738.71847	867.96351	-742.61106	-745.80529	771.82416	-731.91286	-1001.96079	552.03396	-727.86443	-1072.83732	587.11224	-677.37218	-1000.92962	420.96992	-755.06936	-948.08542	401.20262	-704.14520	-789.14167	686.86585	-428.63507	-765.50646	816.48999	-390.68504	-842.31167	733.94634	-388.39119	-800.81338	833.51828	-768.33100	-882.54500	742.95297	-773.54036	-725.53338	1151.03628	-396.22337	-688.25707	1047.78151	-409.27416	-729.53879	1002.30801	-382.11411	-830.13338	1108.31779	-384.56926	-783.26201	1002.71864	-400.75640	-707.32868	1121.14542	-745.25672	-673.68072	985.63950	-729.77316	-808.72693	1093.96246	-780.29250	-777.02488	965.59366	-757.79618	-718.79448	1331.96073	-451.45096	-907.00790	1397.42760	-531.34843	-710.93158	1335.97206	-695.48051	-902.46736	1399.92628	-626.72477	-797.46940	1830.13525	-575.72739	-745.05629	1811.19229	-423.72545	-726.79228	1796.41913	-706.74037	-682.23271	1743.09618	-537.53125	-680.70540	1740.55109	-586.42373	-666.16833	1740.40749	-347.04884	-635.68110	1525.32241	-292.31142	-623.40244	1567.45048	-239.45575	-531.56536	1579.60420	-246.66369	-375.74432	1538.08039	-305.75966	-379.13390	1517.41105	-261.16223	-631.78760	1746.67997	-767.16459	-520.56469	1569.69216	-796.91329	-510.20767	1625.25867	-851.54609	-434.74715	1647.39505	-839.50291	-260.99162	1616.14515	-806.45660	-270.94192	1608.70632	-856.28512	-811.38353	1259.15274	-476.32633	-803.89572	1263.29960	-665.69509	-800.47081	1270.08143	-491.20727	-792.80290	1274.29378	-652.13201	
